<?xml version="1.0" standalone="no"?>
<!DOCTYPE svg PUBLIC "-//W3C//DTD SVG 20010904//EN"
 "http://www.w3.org/TR/2001/REC-SVG-20010904/DTD/svg10.dtd">
<svg version="1.0" xmlns="http://www.w3.org/2000/svg"
 width="513.000000pt" height="513.000000pt" viewBox="0 0 513.000000 513.000000"
 preserveAspectRatio="xMidYMid meet">
<metadata>
Created by potrace 1.14, written by Peter Selinger 2001-2017
</metadata>
<g transform="translate(0.000000,513.000000) scale(0.100000,-0.100000)"
fill="#000000" stroke="none">
<path d="M2115 5110 c-22 -4 -62 -11 -88 -14 -72 -10 -247 -70 -340 -117 -45
-23 -178 -106 -295 -185 -509 -345 -1010 -690 -1050 -722 -191 -154 -199 -434
-18 -598 69 -62 138 -92 235 -100 111 -10 84 -20 665 265 214 105 390 190 391
189 2 -2 6 -32 9 -66 14 -136 81 -244 194 -316 94 -59 94 -59 627 -62 270 -1
530 -5 578 -8 131 -9 267 -39 482 -106 55 -17 168 -52 250 -77 83 -25 154 -49
160 -54 5 -5 10 -64 10 -132 1 -134 7 -153 57 -189 l33 -23 421 -2 c466 -2
464 -2 499 63 18 34 19 72 19 1082 0 991 -1 1049 -19 1085 -34 71 -30 71 -491
71 -391 1 -413 0 -448 -19 -57 -31 -74 -79 -72 -200 1 -55 1 -103 -1 -107 -2
-4 -18 5 -34 20 -106 94 -295 205 -438 256 -90 33 -142 45 -266 65 -72 11
-1013 12 -1070 1z"/>
<path d="M2364 3040 c-115 -16 -241 -104 -292 -205 -77 -151 -62 -290 48 -450
44 -64 199 -224 291 -301 161 -134 208 -154 276 -116 97 53 335 271 428 392
25 33 60 90 78 127 29 62 32 77 32 163 0 86 -3 102 -31 161 -96 202 -323 286
-534 197 -31 -13 -38 -12 -90 8 -63 26 -133 34 -206 24z"/>
<path d="M258 2311 c-18 -10 -43 -33 -55 -51 l-23 -33 0 -1049 c0 -1163 -5
-1085 67 -1129 l38 -24 420 0 420 0 32 24 c44 33 53 66 53 192 0 60 2 109 4
109 2 0 53 -35 113 -78 167 -119 371 -215 507 -236 21 -4 42 -8 46 -11 24 -15
181 -20 630 -20 515 0 557 2 687 36 225 59 301 102 853 481 183 126 351 240
564 385 104 70 205 144 226 165 79 76 121 183 115 297 -10 208 -157 356 -372
375 -68 6 -152 -17 -269 -74 -60 -29 -111 -54 -114 -55 -5 -1 -115 -54 -460
-223 l-225 -109 -6 71 c-16 173 -113 297 -274 352 -44 15 -112 17 -570 19
-458 2 -568 5 -650 20 -136 24 -208 43 -515 140 -135 43 -255 80 -267 82 -22
5 -23 9 -24 127 0 136 -11 180 -52 210 -28 20 -39 21 -447 23 -382 1 -422 0
-452 -16z"/>
</g>
</svg>
